<?xml version="1.0" encoding="utf-8"?>
<!-- Generator: Adobe Illustrator 26.0.1, SVG Export Plug-In . SVG Version: 6.00 Build 0)  -->
<svg version="1.1" id="Lag_1" xmlns="http://www.w3.org/2000/svg" xmlns:xlink="http://www.w3.org/1999/xlink" x="0px" y="0px"
	 viewBox="0 0 1459.06 991.32" style="enable-background:new 0 0 1459.06 991.32;" xml:space="preserve">
<style type="text/css">
	.st0{fill:url(#SVGID_1_);stroke:#FFFFFF;stroke-miterlimit:10;}
	.st1{fill:url(#SVGID_00000001660708406824151510000010128408241876501426_);}
	.st2{fill:url(#SVGID_00000150069717091814103040000013615534379070879874_);stroke:#000000;stroke-miterlimit:10;}
	
		.st3{fill:url(#SVGID_00000171715065655516027520000012366386777310713478_);stroke:url(#SVGID_00000075883112612224897170000015159439887277502864_);stroke-miterlimit:10;}
	.st4{fill:none;}
	
		.st5{fill:url(#SVGID_00000052814855394729263170000001787935738695986087_);stroke:url(#SVGID_00000054956054576820069380000004734690342410665873_);stroke-width:40;stroke-miterlimit:10;}
	.st6{stroke:url(#SVGID_00000009588234828259013680000017530898014645229723_);stroke-width:40;stroke-miterlimit:10;}
	.st7{fill:none;stroke:url(#SVGID_00000124846690279768133840000016637081440813471411_);stroke-width:40;stroke-miterlimit:10;}
	.st8{fill:none;stroke:url(#SVGID_00000026855521730556395710000007398266648762592940_);stroke-width:40;stroke-miterlimit:10;}
	.st9{fill:none;stroke:url(#SVGID_00000088106479009391651480000006781879257955161485_);stroke-width:40;stroke-miterlimit:10;}
	.st10{fill:none;stroke:url(#SVGID_00000093893814754838962550000018259174182126746253_);stroke-width:40;stroke-miterlimit:10;}
</style>
<linearGradient id="SVGID_1_" gradientUnits="userSpaceOnUse" x1="0.5" y1="495.6613" x2="1458.5646" y2="495.6613">
	<stop  offset="0.0885" style="stop-color:#009FE3"/>
	<stop  offset="0.5374" style="stop-color:#F39000"/>
	<stop  offset="0.9104" style="stop-color:#E42513"/>
</linearGradient>
<path class="st0" d="M1338.4,990.82H120.66C54.3,990.82,0.5,937.02,0.5,870.66v-750C0.5,54.3,54.3,0.5,120.66,0.5H1338.4
	c66.36,0,120.16,53.8,120.16,120.16v750C1458.56,937.02,1404.77,990.82,1338.4,990.82z"/>
<g>
	
		<linearGradient id="SVGID_00000107566695531098418480000001392796214583118990_" gradientUnits="userSpaceOnUse" x1="142.4355" y1="220.8091" x2="381.9629" y2="220.8091">
		<stop  offset="0.1443" style="stop-color:#FFED00"/>
		<stop  offset="0.4972" style="stop-color:#F59E00"/>
		<stop  offset="1" style="stop-color:#E62533"/>
	</linearGradient>
	<path style="fill:url(#SVGID_00000107566695531098418480000001392796214583118990_);" d="M264.06,220.81l117.9,29.87
		c-13.63,53.79-62.42,91.75-117.9,91.75c-66.72,0-121.63-54.9-121.63-121.63s54.9-121.63,121.63-121.63
		c45.71,0,87.72,25.77,108.43,66.53L264.06,220.81z"/>
	<path d="M264.06,220.81c0.01,0.02,117.94,29.84,117.91,29.88c-3.44,13.67-9.3,26.73-17.22,38.39c-23.6,35.4-66.5,56.62-108.99,53.4
		c-74.12-4.4-128.78-78.07-110.27-150.26c14.54-60.24,74.68-101.28,136.08-91.75c1.78,0.29,6.1,1.11,7.8,1.4
		c1.59,0.4,6.03,1.5,7.69,1.91c13.54,3.91,26.41,10.09,37.89,18.27c15.72,11.32,28.68,26.44,37.53,43.67
		C372.49,165.71,264.06,220.81,264.06,220.81L264.06,220.81z M264.06,220.81c0,0,108.43-55.1,108.43-55.1
		c-8.85-17.22-21.8-32.36-37.53-43.67c-11.48-8.18-24.35-14.36-37.89-18.27c-1.67-0.41-6.07-1.52-7.69-1.91
		c-1.69-0.33-6.07-1.05-7.81-1.37c-61.32-9.22-121.02,31.72-135.3,91.91c-10.28,41.1,3.34,86.71,34.15,115.71
		c66.92,64.49,178.34,32.28,201.52-57.43C382.02,250.74,264.05,220.79,264.06,220.81L264.06,220.81z"/>
</g>
<linearGradient id="SVGID_00000071518909197611805670000001446092292754002330_" gradientUnits="userSpaceOnUse" x1="600.468" y1="215.0161" x2="826.5163" y2="215.0161">
	<stop  offset="0.093" style="stop-color:#E30613"/>
	<stop  offset="0.5508" style="stop-color:#697ABB"/>
	<stop  offset="0.9461" style="stop-color:#009FE3"/>
</linearGradient>
<path style="fill:url(#SVGID_00000071518909197611805670000001446092292754002330_);stroke:#000000;stroke-miterlimit:10;" d="
	M718.21,215.02L826.52,265c-18.47,46.87-61.22,77.44-108.31,77.44c-64.59,0-117.74-57.52-117.74-127.42S653.62,87.6,718.21,87.6
	c44.66,0,85.64,27.5,105.48,70.8L718.21,215.02z"/>
<linearGradient id="SVGID_00000066476095924001282020000003464665373809585087_" gradientUnits="userSpaceOnUse" x1="1076.3064" y1="215.0161" x2="1295.8621" y2="215.0161">
	<stop  offset="0" style="stop-color:#008BD2"/>
	<stop  offset="0.5195" style="stop-color:#009BE0;stop-opacity:0.41"/>
	<stop  offset="1" style="stop-color:#FFFFFF"/>
</linearGradient>
<linearGradient id="SVGID_00000063620570560034142150000012034568311408185535_" gradientUnits="userSpaceOnUse" x1="1075.8064" y1="215.0161" x2="1296.5234" y2="215.0161">
	<stop  offset="0.0885" style="stop-color:#009FE3"/>
	<stop  offset="0.5374" style="stop-color:#F39000"/>
	<stop  offset="0.9104" style="stop-color:#FBFDFF"/>
</linearGradient>
<path style="fill:url(#SVGID_00000066476095924001282020000003464665373809585087_);stroke:url(#SVGID_00000063620570560034142150000012034568311408185535_);stroke-miterlimit:10;" d="
	M1194.05,215.02l101.81,64c-21.05,39.21-59.91,63.42-101.81,63.42c-64.59,0-117.74-57.52-117.74-127.42S1129.46,87.6,1194.05,87.6
	c34.94,0,68.12,16.83,90.48,45.88L1194.05,215.02z"/>
<line class="st4" x1="142.44" y1="713.4" x2="394.05" y2="910.18"/>
<linearGradient id="SVGID_00000075845977329209225250000011335899732312341396_" gradientUnits="userSpaceOnUse" x1="158.5645" y1="792.4355" x2="394.0484" y2="792.4355">
	<stop  offset="0.1443" style="stop-color:#FFED00"/>
	<stop  offset="0.4972" style="stop-color:#F59E00"/>
	<stop  offset="0.9729" style="stop-color:#E62533"/>
</linearGradient>
<linearGradient id="SVGID_00000029742311236915102070000016458807512830373303_" gradientUnits="userSpaceOnUse" x1="144.4224" y1="792.4355" x2="408.1905" y2="792.4355">
	<stop  offset="0.0885" style="stop-color:#F8ED6E"/>
	<stop  offset="0.3833" style="stop-color:#F39000"/>
	<stop  offset="0.7205" style="stop-color:#E30613"/>
</linearGradient>
<line style="fill:url(#SVGID_00000075845977329209225250000011335899732312341396_);stroke:url(#SVGID_00000029742311236915102070000016458807512830373303_);stroke-width:40;stroke-miterlimit:10;" x1="158.56" y1="674.69" x2="394.05" y2="910.18"/>
<linearGradient id="SVGID_00000103947290749511483060000004248312228504242357_" gradientUnits="userSpaceOnUse" x1="148.1879" y1="801.4783" x2="404.425" y2="801.4783">
	<stop  offset="0.0885" style="stop-color:#F8ED6E"/>
	<stop  offset="0.3833" style="stop-color:#F39000"/>
	<stop  offset="0.7205" style="stop-color:#E30613"/>
</linearGradient>
<line style="stroke:url(#SVGID_00000103947290749511483060000004248312228504242357_);stroke-width:40;stroke-miterlimit:10;" x1="389.79" y1="679.63" x2="162.82" y2="923.33"/>
<linearGradient id="SVGID_00000109749393383132566680000016372057601384113850_" gradientUnits="userSpaceOnUse" x1="597.6482" y1="770.3329" x2="861.4163" y2="770.3329">
	<stop  offset="0.0885" style="stop-color:#E30613"/>
	<stop  offset="0.3833" style="stop-color:#F39000"/>
	<stop  offset="0.7205" style="stop-color:#009FE3"/>
</linearGradient>
<line style="fill:none;stroke:url(#SVGID_00000109749393383132566680000016372057601384113850_);stroke-width:40;stroke-miterlimit:10;" x1="611.79" y1="652.59" x2="847.27" y2="888.07"/>
<linearGradient id="SVGID_00000053514306336672860510000008629973425655366798_" gradientUnits="userSpaceOnUse" x1="601.4137" y1="779.3758" x2="857.6508" y2="779.3758">
	<stop  offset="0.0885" style="stop-color:#E30613"/>
	<stop  offset="0.3833" style="stop-color:#F39000"/>
	<stop  offset="0.7205" style="stop-color:#009FE3"/>
</linearGradient>
<line style="fill:none;stroke:url(#SVGID_00000053514306336672860510000008629973425655366798_);stroke-width:40;stroke-miterlimit:10;" x1="843.02" y1="657.52" x2="616.05" y2="901.23"/>
<linearGradient id="SVGID_00000044884547557934152450000007655884143691817100_" gradientUnits="userSpaceOnUse" x1="1062.1643" y1="763.7563" x2="1325.9325" y2="763.7563">
	<stop  offset="0.0885" style="stop-color:#009FE3"/>
	<stop  offset="0.5575" style="stop-color:#F39000"/>
	<stop  offset="0.9104" style="stop-color:#FBFDFF"/>
</linearGradient>
<line style="fill:none;stroke:url(#SVGID_00000044884547557934152450000007655884143691817100_);stroke-width:40;stroke-miterlimit:10;" x1="1076.31" y1="646.01" x2="1311.79" y2="881.5"/>
<linearGradient id="SVGID_00000160904948419354443600000010882385580511399356_" gradientUnits="userSpaceOnUse" x1="1065.9298" y1="772.7991" x2="1322.167" y2="772.7991">
	<stop  offset="0.0885" style="stop-color:#009FE3"/>
	<stop  offset="0.5374" style="stop-color:#F39000"/>
	<stop  offset="0.9104" style="stop-color:#FBFDFF"/>
</linearGradient>
<line style="fill:none;stroke:url(#SVGID_00000160904948419354443600000010882385580511399356_);stroke-width:40;stroke-miterlimit:10;" x1="1307.53" y1="650.95" x2="1080.57" y2="894.65"/>
</svg>
